<svg xmlns="http://www.w3.org/2000/svg" viewBox="0 0 77.26 23.97"><defs><style>.cls-1{fill:#1d1d1b;}</style></defs><g id="Layer_2" data-name="Layer 2"><g id="Layer_1-2" data-name="Layer 1"><polygon class="cls-1" points="58.96 2.89 53.27 0.21 55.67 5.87 58.96 2.89"/><polygon class="cls-1" points="71.35 20.99 77.04 23.67 74.64 18.01 71.35 20.99"/><path class="cls-1" d="M77.26.3,73.65,2.73,63.34,9.66h0L53.17,23.72l3.72-2.63,10.52-7.44h0ZM59.74,17.24l3.84-5.3,1.51,1.51Z"/><path class="cls-1" d="M25.33,23.88h4.42l2.39-5.15h9.3l2.61,5.15h4.49L36.44,0Zm14.16-9H33.94l2.65-5.71Z"/><polygon class="cls-1" points="20.57 0.3 14.71 0.3 4.01 10.33 4.01 0.32 0 0.32 0 23.82 4.01 23.82 4.01 14.13 14.72 23.97 20.64 23.97 7.85 12.22 20.57 0.3"/></g></g></svg>